PathFileType	4	(X/Y/Z)	D:\Share\Shared_Data\Ergonomics\Sit To Stand Pertubation\S0\Perturbed STS.trc
DataRate	CameraRate	NumFrames	NumMarkers	Units	OrigDataRate	OrigDataStartFrame	OrigNumFrames	
100	100	13	18	m	100	13056	241
Frame#	Time	R_Heel			R_ASIS			R_Pelvis			V_Sacral			L_Pelvis			L_ASIS			Clavical			R_Acromium			L_Acromium			Sternum			Torso			R_Thigh_Med			R_Thigh_Lat			R_Thigh			R_Shank_Med			R_Shank_Lat			R_Shank			R_Toe			
		X1	Y1	Z1	X2	Y2	Z2	X3	Y3	Z3	X4	Y4	Z4	X5	Y5	Z5	X6	Y6	Z6	X7	Y7	Z7	X8	Y8	Z8	X9	Y9	Z9	X10	Y10	Z10	X11	Y11	Z11	X12	Y12	Z12	X13	Y13	Z13	X14	Y14	Z14	X15	Y15	Z15	X16	Y16	Z16	X17	Y17	Z17	X18	Y18	Z18	

13056	86.9	0.17309163	0.042506134	0.11580613	0.38126248	1.0041461	0.15002524	0.25588095	1.0202399	0.18940375	0.1365591	1.0185317	-0.039082577	0.28209103	1.0043173	-0.2171674	0.39742813	0.98625635	-0.16841167	0.39720514	1.4419952	-0.019699606	0.30993243	1.5038187	0.11905177	0.30690991	1.5086437	-0.17170422	0.43250705	1.3502544	-0.035216766	0.40142499	1.3946188	-0.14307767	0.31376428	0.49479263	0.023883583	0.3127821	0.51825787	0.15103304	0.39834064	0.64713934	0.087793068	0.2713941	0.10147684	0.070143181	0.21249355	0.086822502	0.15846216	0.25542313	0.3185462	0.17362517	0.40002155	0.0452556	0.11230249
13057	86.91	0.17310738	0.042570103	0.11579205	0.38263077	1.0043198	0.15011508	0.25724072	1.0201718	0.18955272	0.13799342	1.0179048	-0.038894104	0.2835697	1.0041753	-0.21707951	0.39876007	0.98637421	-0.1683493	0.39687167	1.4423052	-0.01941703	0.30943921	1.5037665	0.11946677	0.3061965	1.5085629	-0.17142401	0.43251334	1.3506843	-0.03496814	0.4012186	1.3949395	-0.14281383	0.31334137	0.49491064	0.023944683	0.31255624	0.51837506	0.15105371	0.39868185	0.64706665	0.08772731	0.27137927	0.101548	0.070164185	0.21248656	0.086869171	0.158452	0.25515071	0.31868658	0.17366345	0.40005386	0.045232357	0.11234836
13058	86.92	0.17312206	0.042633583	0.1157703	0.3839343	1.0044697	0.15018518	0.2585322	1.0200956	0.18968803	0.13934904	1.0172932	-0.038713112	0.28493646	1.0040283	-0.21700056	0.40002432	0.98649286	-0.16831075	0.39655493	1.4425663	-0.019133116	0.30899246	1.5036858	0.11987682	0.30553271	1.5084619	-0.1711385	0.43251535	1.3510645	-0.034723316	0.40102576	1.3952184	-0.14254376	0.31293002	0.49504147	0.023980892	0.31236246	0.51848663	0.1510621	0.39902554	0.64701782	0.087598282	0.27136691	0.10161868	0.070172318	0.2124827	0.086919357	0.15843588	0.25489851	0.31882623	0.17369223	0.40008658	0.04520887	0.11238622
13059	86.93	0.17313457	0.042693447	0.11574445	0.38517426	1.0046022	0.15023917	0.25976016	1.0200168	0.18981026	0.14062399	1.0166998	-0.038541557	0.28619608	1.0038775	-0.21693092	0.40122067	0.98661127	-0.16829205	0.39625531	1.4427821	-0.01884906	0.30859006	1.5035793	0.12028022	0.30491998	1.5083445	-0.17085008	0.4325116	1.3513964	-0.034481956	0.40084631	1.395457	-0.14226903	0.31253473	0.49517993	0.023993883	0.31220425	0.51858856	0.15106296	0.39937268	0.64698712	0.087409012	0.27135754	0.10168801	0.070170486	0.21248122	0.0869701	0.15841628	0.25466713	0.31896133	0.17371582	0.40011829	0.045185169	0.11241758
13060	86.94	0.17314397	0.042747261	0.1157188	0.38634784	1.0047208	0.15028075	0.26092996	1.0199384	0.18992047	0.14181705	1.0161283	-0.038380882	0.28735394	1.003726	-0.21687143	0.40234674	0.98672748	-0.16828775	0.3959733	1.4429574	-0.01856662	0.30822928	1.5034503	0.12067534	0.30435754	1.5082158	-0.17056116	0.43250064	1.3516823	-0.034244698	0.40067917	1.3956583	-0.14199213	0.31216446	0.49531924	0.023987833	0.31208755	0.51867731	0.1510605	0.39972363	0.64696582	0.087167328	0.2713515	0.10175465	0.070162086	0.21248184	0.087018356	0.15839572	0.25446227	0.31908734	0.17373843	0.40014804	0.045161575	0.11244363
13061	86.95	0.17314981	0.042793934	0.11569731	0.38745013	1.0048259	0.15031331	0.26204559	1.0198607	0.19001952	0.14292801	1.0155842	-0.038232342	0.28841327	1.0035773	-0.21682245	0.40339795	0.98683887	-0.16829146	0.39570935	1.4430977	-0.018288021	0.30790677	1.5033018	0.12106033	0.30384268	1.5080814	-0.17027403	0.43248148	1.3519258	-0.034012821	0.40052283	1.3958268	-0.14171623	0.31183252	0.49545221	0.023969374	0.3120206	0.51875055	0.15105751	0.40007886	0.64694489	0.086885612	0.2713494	0.10181724	0.070150543	0.21248482	0.087061798	0.15837668	0.25429416	0.31920032	0.17376314	0.4001752	0.045138611	0.11246537
13062	86.96	0.17315221	0.042833595	0.11568262	0.38847617	1.0049156	0.15034007	0.26310803	1.0197818	0.19010815	0.1439576	1.0150735	-0.038097153	0.28937561	1.0034352	-0.21678363	0.40436902	0.98694214	-0.16829723	0.39546411	1.443209	-0.018015753	0.3076189	1.5031373	0.12143322	0.30337131	1.5079484	-0.16999066	0.43245383	1.3521307	-0.03378767	0.40037567	1.3959679	-0.14144508	0.31155368	0.4955719	0.023946384	0.31201202	0.51880725	0.15105499	0.40043958	0.64691772	0.086580086	0.27135156	0.10187493	0.070138779	0.21249084	0.087099457	0.15836121	0.25417438	0.31929758	0.17379129	0.40019983	0.045116684	0.11248357
13063	86.97	0.17315215	0.042867447	0.11567564	0.38942285	1.0049868	0.15036411	0.2641142	1.0196981	0.19018665	0.14490704	1.0146019	-0.037976284	0.29024304	1.0033035	-0.21675386	0.40525577	0.987034	-0.16830057	0.39523819	1.4432965	-0.017752237	0.307362	1.502962	0.12179214	0.30293848	1.5078221	-0.16971208	0.43241876	1.3523029	-0.033570465	0.4002359	1.396087	-0.14118251	0.31134082	0.49567313	0.023925955	0.31206873	0.5188476	0.15105252	0.40080746	0.6468808	0.086269722	0.27135809	0.10192748	0.070128922	0.21250079	0.087131729	0.15835066	0.25411206	0.31937827	0.17382257	0.40022202	0.045095833	0.11249863
13064	86.98	0.17315102	0.042897572	0.11567548	0.39028983	1.0050369	0.15038817	0.26505664	1.0196059	0.19025526	0.14577739	1.0141744	-0.037870171	0.29101968	1.0031856	-0.21673131	0.40605612	0.98711249	-0.16829945	0.39503174	1.443366	-0.017499603	0.30713303	1.5027802	0.1221357	0.302539	1.5077079	-0.16943858	0.43237808	1.3524473	-0.033362431	0.40010187	1.3961906	-0.14093198	0.31120239	0.49575357	0.023912561	0.31219376	0.51887311	0.15104877	0.4011843	0.64683398	0.085974174	0.27136816	0.10197471	0.070122154	0.21251564	0.087160172	0.15834528	0.25411075	0.31944296	0.17385519	0.40024228	0.045075829	0.11251056
13065	86.99	0.17315027	0.042926178	0.11567988	0.39107916	1.0050656	0.15041429	0.2659245	1.019502	0.19031427	0.14656953	1.0137944	-0.037778732	0.29171158	1.0030835	-0.21671306	0.40677142	0.98717664	-0.16829417	0.39484485	1.4434216	-0.017259678	0.30692981	1.5025969	0.12246303	0.30216824	1.507608	-0.16916994	0.43233398	1.3525693	-0.033165108	0.39997217	1.3962834	-0.14069615	0.31114224	0.49581451	0.023907373	0.31238412	0.51888629	0.15104234	0.40157053	0.64677911	0.085710732	0.27137967	0.10201594	0.070118561	0.21253604	0.087186653	0.15834409	0.25416696	0.31949384	0.17388622	0.40026132	0.045056561	0.11251946
13066	87	0.17315134	0.042954479	0.11568576	0.39179483	1.0050742	0.15044334	0.26670685	1.019385	0.19036395	0.14728444	1.0134631	-0.03770129	0.29232562	1.0029976	-0.21669566	0.40740573	0.98722717	-0.16828709	0.39467725	1.4434673	-0.017034142	0.30675073	1.5024164	0.12277356	0.30182202	1.5075251	-0.16890572	0.43228821	1.3526737	-0.032980602	0.39984555	1.3963701	-0.14047688	0.31115958	0.49585974	0.023908922	0.31263104	0.51888977	0.15103239	0.401965	0.6467204	0.085491615	0.27138898	0.10204938	0.070117287	0.21256216	0.087212685	0.15834506	0.25427115	0.31953354	0.17391216	0.40027972	0.045038143	0.11252577
13067	87.01	0.17315526	0.042982315	0.11569033	0.39244196	1.0050662	0.15047481	0.26739697	1.0192553	0.19040485	0.14792348	1.0131788	-0.037636543	0.29286874	1.0029265	-0.21667607	0.40796564	0.98726593	-0.16828172	0.39452829	1.4435062	-0.01682453	0.30659445	1.5022412	0.12306703	0.3014967	1.5074597	-0.16864603	0.43224188	1.3527637	-0.032811455	0.39972073	1.3964543	-0.14027522	0.31124994	0.49589334	0.023914541	0.31292026	0.51888599	0.15101875	0.40236462	0.64666376	0.085322792	0.27138989	0.10207182	0.070117096	0.21259355	0.087238945	0.1583454	0.2544097	0.31956433	0.17392976	0.400298	0.045020893	0.1125303
13068	87.02	0.17316228	0.043008553	0.11569157	0.39302591	1.0050461	0.15050681	0.26799387	1.019115	0.19043765	0.14848897	1.0129379	-0.03758263	0.2933476	1.002867	-0.21665227	0.40845923	0.9872959	-0.16828192	0.39439713	1.4435411	-0.016632048	0.3064592	1.5020734	0.12334342	0.30119019	1.5074124	-0.16839151	0.43219559	1.3528418	-0.032660309	0.3995965	1.3965377	-0.14009192	0.31140585	0.49591772	0.023921625	0.3132345	0.51887585	0.15100197	0.40276425	0.64661481	0.085204636	0.27137238	0.1020787	0.070117157	0.2126292	0.087265305	0.15834247	0.25456769	0.31958762	0.17393668	0.40031583	0.045005245	0.11253413
